<?xml version="1.0" encoding="UTF-8" standalone="no"?>
<!-- Created with Inkscape (http://www.inkscape.org/) -->

<svg
   version="1.1"
   id="svg1"
   width="64"
   height="64"
   viewBox="0 0 64 64"
   sodipodi:docname="flameshot.monochrome.svg"
   inkscape:export-filename="flameshot.mask.png"
   inkscape:export-xdpi="54"
   inkscape:export-ydpi="54"
   xmlns:inkscape="http://www.inkscape.org/namespaces/inkscape"
   xmlns:sodipodi="http://sodipodi.sourceforge.net/DTD/sodipodi-0.dtd"
   xmlns="http://www.w3.org/2000/svg"
   xmlns:svg="http://www.w3.org/2000/svg">
  <defs
     id="defs1" />
  <sodipodi:namedview
     id="namedview1"
     pagecolor="#ffffff"
     bordercolor="#000000"
     borderopacity="0.25"
     inkscape:showpageshadow="2"
     inkscape:pageopacity="0.0"
     inkscape:pagecheckerboard="0"
     inkscape:deskcolor="#d1d1d1"
     inkscape:zoom="12.515625"
     inkscape:cx="32"
     inkscape:cy="32"
     inkscape:window-width="1920"
     inkscape:window-height="1010"
     inkscape:window-x="0"
     inkscape:window-y="0"
     inkscape:window-maximized="1"
     inkscape:current-layer="g1">
    <inkscape:page
       x="0"
       y="0"
       width="64"
       height="64"
       id="page2"
       margin="0"
       bleed="0" />
  </sodipodi:namedview>
  <g
     inkscape:groupmode="layer"
     inkscape:label="Image"
     id="g1">
    <path
       style="fill:#000000;stroke:#ffffff;stroke-width:0.5;stroke-dasharray:none"
       d="m 21.897508,54.8125 c -0.374483,-0.965972 -0.875271,-2.892605 -1.112821,-4.28125 -0.220518,-1.289086 -0.305746,-2.414206 -0.270614,-3.57246 0.01704,-0.561709 0.02128,-1.02129 0.0094,-1.02129 -0.01186,0 -0.422777,0.142536 -0.913151,0.316747 -1.095244,0.389097 -2.691462,1.165477 -3.483449,1.694305 -0.69357,0.463112 -1.649649,1.35452 -2.040986,1.902931 -0.278841,0.390759 -0.648404,1.131539 -0.648404,1.299706 0,0.05029 -0.02304,0.105671 -0.05119,0.123072 -0.02815,0.0174 -0.04304,-0.04422 -0.03308,-0.136937 0.01,-0.09272 0.04905,-0.463887 0.08686,-0.824824 0.168757,-1.610789 0.650837,-3.965689 1.132322,-5.53125 0.923758,-3.003626 2.347485,-5.302598 4.010608,-6.476155 0.977844,-0.69 1.671462,-0.924931 3.385732,-1.146756 4.160736,-0.538397 6.921217,-1.623043 8.753927,-3.439589 0.794882,-0.787871 1.036955,-1.147919 1.013318,-1.50716 -0.01017,-0.154534 -0.0428,-0.246308 -0.07952,-0.223634 -0.03425,0.02115 -0.442063,0.295506 -0.90625,0.609679 -1.46256,0.989897 -2.637427,1.628859 -3.909719,2.126334 -1.109271,0.433733 -1.804681,0.591569 -2.778008,0.630517 -1.328764,0.05317 -1.872827,-0.123725 -3.081727,-1.001996 -2.785375,-2.023587 -5.533597,-3.167187 -8.219566,-3.420356 -0.665352,-0.06271 -1.552983,-0.04031 -1.847159,0.04662 -0.248962,0.07357 -0.0039,-0.124066 0.876799,-0.70704 1.577136,-1.044009 3.482109,-1.944384 4.900097,-2.316005 l 0.621853,-0.162973 -0.165898,-0.286994 c -1.931669,-3.34168 -4.882415,-5.423498 -7.7223891,-5.448321 -0.5459013,-0.0048 -0.5695057,-0.01029 -0.3932599,-0.09193 0.3386105,-0.156856 1.732733,-0.581039 2.65625,-0.808203 1.962255,-0.482672 3.712792,-0.692988 5.35371,-0.643215 0.561709,0.01704 1.02129,0.02128 1.02129,0.0094 0,-0.169471 -0.751019,-2.044687 -1.12329,-2.80474 -0.660624,-1.34877 -1.13244,-2.039407 -1.968711,-2.881767 -0.713273,-0.718465 -1.266322,-1.105374 -1.898002,-1.327828 -0.177586,-0.06254 -0.33577,-0.126595 -0.351521,-0.142346 -0.04095,-0.04095 0.940758,0.05369 1.747774,0.168498 5.445467,0.774656 9.493518,2.591929 11.217945,5.036021 0.696786,0.987579 0.932379,1.678338 1.15325,3.381335 0.269624,2.078887 0.582476,3.458783 1.116001,4.922337 0.61081,1.675562 1.468348,3.064719 2.488522,4.03125 0.671862,0.636533 1.019396,0.8511 1.343942,0.829745 0.154534,-0.01017 0.246308,-0.0428 0.223634,-0.07952 -0.02115,-0.03425 -0.2956,-0.442063 -0.609889,-0.90625 -1.839342,-2.716608 -2.775102,-5.045334 -2.775252,-6.906477 -9.6e-5,-1.193369 0.179349,-1.693087 1.033688,-2.878608 1.645653,-2.283587 2.713281,-4.543097 3.187698,-6.746392 0.204661,-0.950492 0.303154,-2.176061 0.228539,-2.84375 -0.03265,-0.292188 -0.05201,-0.540187 -0.04303,-0.551111 0.009,-0.01092 0.145195,0.160715 0.302686,0.381418 1.202657,1.685374 2.263442,3.832907 2.70021,5.466511 l 0.171265,0.640569 0.286645,-0.165693 c 1.93163,-1.116566 3.448267,-2.555575 4.395269,-4.170297 0.633825,-1.080729 1.045274,-2.470093 1.048016,-3.538897 0.0018,-0.7068093 0.0352,-0.6799435 0.349571,0.28125 0.826909,2.528321 1.263037,5.193637 1.198421,7.323916 -0.03089,1.01827 -0.03045,1.022573 0.100922,0.982778 1.137718,-0.344641 2.96798,-1.151132 3.850695,-1.69678 1.51997,-0.939564 2.669079,-2.165003 3.053345,-3.256167 0.06254,-0.177586 0.125914,-0.335089 0.140833,-0.350008 0.0403,-0.0403 3.75e-4,0.384247 -0.13653,1.451698 -0.706611,5.509458 -2.575083,9.75469 -5.067307,11.513092 -0.989163,0.697909 -1.685219,0.935456 -3.380182,1.153576 -4.113693,0.529377 -6.883846,1.599879 -8.725016,3.371706 -0.743314,0.715319 -1.16005,1.337524 -1.064998,1.590086 0.0303,0.08052 0.03664,0.17627 0.01407,0.212782 -0.05201,0.08415 -0.0519,0.08408 0.978059,-0.613274 2.712674,-1.836679 5.048028,-2.775102 6.906477,-2.775252 1.193369,-9.6e-5 1.693087,0.179349 2.878608,1.033688 2.827538,2.037649 5.61697,3.187285 8.268245,3.407672 0.513401,0.04268 0.976934,0.04529 1.321897,0.0075 0.292187,-0.03204 0.540187,-0.05091 0.551111,-0.04192 0.01092,0.009 -0.160715,0.145195 -0.381418,0.302686 -1.685374,1.202657 -3.832907,2.263442 -5.466511,2.70021 l -0.640569,0.171265 0.165693,0.286645 c 1.383743,2.393839 3.26069,4.141614 5.302944,4.937995 0.82964,0.32352 1.696486,0.504659 2.420785,0.505856 0.691516,0.0011 0.662252,0.03567 -0.295785,0.349005 -2.528321,0.826909 -5.193637,1.263037 -7.323916,1.198421 -1.01827,-0.03089 -1.022573,-0.03045 -0.982778,0.100922 0.392852,1.29687 1.305363,3.281352 1.971812,4.288195 0.76955,1.162603 2.053387,2.289128 2.981135,2.615845 0.383079,0.134906 0.446628,0.181629 0.212644,0.156343 -0.09427,-0.01019 -0.46671,-0.04946 -0.827647,-0.08728 -1.615588,-0.16926 -3.7152,-0.596808 -5.40625,-1.100885 -3.044261,-0.907449 -5.411859,-2.356548 -6.598963,-4.038923 -0.689159,-0.976684 -0.92703,-1.674915 -1.146125,-3.364265 -0.264967,-2.043041 -0.532967,-3.257233 -1.041935,-4.720565 -0.692819,-1.991919 -1.834265,-3.740189 -3.052171,-4.674786 -0.49055,-0.376439 -0.691967,-0.469734 -0.869703,-0.402843 -0.08052,0.0303 -0.17627,0.03664 -0.212782,0.01407 -0.08411,-0.05198 -0.0843,-0.05229 0.613064,0.978059 0.989897,1.46256 1.628859,2.637427 2.126334,3.909719 0.433733,1.109271 0.591569,1.804681 0.630517,2.778008 0.053,1.324404 -0.126484,1.873342 -1.011538,3.09375 -2.040284,2.813362 -3.184455,5.591212 -3.410972,8.28125 -0.04876,0.579081 -0.05185,1.000591 -0.0098,1.34375 0.03367,0.275 0.05368,0.508937 0.04447,0.519861 -0.0092,0.01092 -0.145598,-0.160715 -0.303089,-0.381418 -1.202657,-1.685374 -2.263442,-3.832907 -2.70021,-5.466511 l -0.171265,-0.640569 -0.286645,0.165693 c -3.296613,1.905586 -5.292953,4.678838 -5.437027,7.552944 l -0.0376,0.75 z M 32.160569,32.180512 c 0.02362,-0.03822 0.0042,-0.09404 -0.04319,-0.124043 -0.06812,-0.04315 -0.06326,-0.05476 0.02324,-0.05551 0.122635,-0.0011 0.146054,-0.09591 0.03989,-0.161526 -0.03822,-0.02362 -0.09404,-0.0042 -0.124043,0.04319 -0.04315,0.06812 -0.05476,0.06326 -0.05551,-0.02324 -0.0011,-0.122635 -0.09591,-0.146054 -0.161526,-0.03989 -0.02362,0.03822 -0.0042,0.09404 0.04319,0.124043 0.06812,0.04315 0.06326,0.05476 -0.02324,0.05551 -0.122635,0.0011 -0.146054,0.09591 -0.03989,0.161526 0.03822,0.02362 0.09404,0.0042 0.124043,-0.04319 0.04315,-0.06812 0.05476,-0.06326 0.05551,0.02324 0.0011,0.122635 0.09591,0.146054 0.161526,0.03989 z"
       id="path5" />
    <path
       style="fill:#000000;stroke:#ffffff;stroke-width:0.5;stroke-dasharray:none"
       d="m 21.673639,54.03125 c -0.518323,-1.646594 -0.869829,-3.262652 -1.053557,-4.84375 -0.07971,-0.685927 -0.100251,-2.896942 -0.02898,-3.118616 0.04538,-0.141129 0.03674,-0.147578 -0.148091,-0.110612 -0.353858,0.07077 -1.896243,0.671616 -2.661763,1.036904 -2.194402,1.047116 -3.775783,2.483507 -4.2813,3.888767 -0.154349,0.429067 -0.153889,0.284998 0.0029,-0.922379 0.80273,-6.179769 2.887602,-10.541318 5.764431,-12.059182 0.801055,-0.42265 1.31715,-0.554976 2.920174,-0.748731 2.590243,-0.313079 4.920244,-1.011078 6.681658,-2.001627 1.07847,-0.606489 2.223062,-1.609214 2.693342,-2.359516 0.120312,-0.191951 0.235995,-0.350353 0.257072,-0.352005 0.02108,-0.0017 0.08438,0.229028 0.140674,0.512622 0.129973,0.654778 0.132449,1.811392 0.0053,2.481602 -0.314985,1.660469 -1.247463,3.447648 -2.729679,5.231678 -0.867379,1.043999 -1.215407,1.692798 -1.454227,2.710994 -0.156537,0.667392 -0.189796,1.885945 -0.07243,2.653851 0.05351,0.350126 0.0709,0.633775 0.03955,0.644951 -0.116668,0.04158 -1.175264,0.723926 -1.649925,1.063495 -0.706387,0.505346 -1.84366,1.618766 -2.378052,2.328178 -1.025695,1.361621 -1.592291,2.805246 -1.710711,4.358709 L 21.96875,54.96875 Z M 49.90625,50.495326 C 43.642683,49.654988 39.325166,47.55389 37.843396,44.625 37.470282,43.887497 37.340478,43.358209 37.153651,41.8125 36.770933,38.646097 35.827125,35.921111 34.486214,34.111006 34.017872,33.478788 33.26156,32.731496 32.792508,32.4375 c -0.191951,-0.120312 -0.350353,-0.235995 -0.352005,-0.257072 -0.0017,-0.02108 0.229028,-0.08438 0.512622,-0.140674 0.647348,-0.128498 1.811993,-0.132885 2.463252,-0.0093 1.685376,0.31988 3.445864,1.236742 5.250028,2.734213 1.035574,0.859535 1.573947,1.152274 2.63096,1.430578 0.674734,0.177653 1.915991,0.221141 2.733885,0.09578 0.350006,-0.05364 0.633778,-0.07116 0.644951,-0.03982 0.04172,0.117061 0.724363,1.175859 1.063495,1.64952 0.466652,0.651768 1.536219,1.765091 2.174647,2.263611 1.371762,1.07115 2.951121,1.715013 4.460657,1.818491 l 0.59375,0.0407 -0.838281,0.270535 c -2.587944,0.835199 -5.39954,1.267617 -7.442969,1.144717 -0.395313,-0.02378 -0.73111,-0.03316 -0.746218,-0.02084 -0.08121,0.06619 0.545666,1.730539 1.05491,2.800784 1.041977,2.189853 2.481946,3.775587 3.887751,4.2813 0.316845,0.113979 0.323071,0.120232 0.116057,0.116555 -0.120312,-0.0021 -0.6125,-0.05671 -1.09375,-0.121279 z M 31.875,32.28125 c 0,-0.01719 0.01406,-0.03125 0.03125,-0.03125 0.01719,0 0.03125,0.01406 0.03125,0.03125 0,0.01719 -0.01406,0.03125 -0.03125,0.03125 -0.01719,0 -0.03125,-0.01406 -0.03125,-0.03125 z m 0.375,-0.1875 c 0,-0.01719 0.01406,-0.03125 0.03125,-0.03125 0.01719,0 0.03125,0.01406 0.03125,0.03125 0,0.01719 -0.01406,0.03125 -0.03125,0.03125 -0.01719,0 -0.03125,-0.01406 -0.03125,-0.03125 z m -3.8125,-0.14926 c -1.667304,-0.365035 -3.372015,-1.269715 -5.103905,-2.708611 -1.043999,-0.867379 -1.692798,-1.215407 -2.710994,-1.454227 -0.667392,-0.156537 -1.885945,-0.189796 -2.653851,-0.07243 -0.353059,0.05396 -0.633728,0.07103 -0.64506,0.03922 -0.05439,-0.152643 -0.801184,-1.287829 -1.204105,-1.830328 -0.537218,-0.723318 -1.776593,-1.942118 -2.434938,-2.394517 -1.330519,-0.914298 -2.995796,-1.50648 -4.3022089,-1.52989 L 9.03125,21.987414 9.875,21.709477 c 2.569776,-0.846501 5.431361,-1.288545 7.46875,-1.153738 0.378125,0.02502 0.701399,0.03459 0.718388,0.02128 0.04191,-0.03285 -0.393052,-1.283413 -0.700683,-2.014518 -1.109451,-2.636681 -2.670153,-4.495566 -4.252599,-5.065086 -0.420366,-0.151289 -0.27538,-0.151229 0.904379,3.7e-4 6.173509,0.793297 10.565089,2.890004 12.084383,5.769542 0.42265,0.801055 0.554976,1.31715 0.748731,2.920174 0.425829,3.523079 1.488725,6.352523 3.09353,8.235018 0.393285,0.461338 1.158279,1.12021 1.518041,1.307456 l 0.19833,0.103225 -0.34375,0.08796 c -0.194328,0.04973 -0.778432,0.09919 -1.34375,0.113801 -0.813708,0.02103 -1.098968,0.0042 -1.53125,-0.09047 z m 3.25,-0.03824 c 0,-0.01719 0.01406,-0.03125 0.03125,-0.03125 0.01719,0 0.03125,0.01406 0.03125,0.03125 0,0.01719 -0.01406,0.03125 -0.03125,0.03125 -0.01719,0 -0.03125,-0.01406 -0.03125,-0.03125 z m 0.375,-0.1875 c 0,-0.01719 0.01406,-0.03125 0.03125,-0.03125 0.01719,0 0.03125,0.01406 0.03125,0.03125 0,0.01719 -0.01406,0.03125 -0.03125,0.03125 -0.01719,0 -0.03125,-0.01406 -0.03125,-0.03125 z m -0.02568,-0.686374 c -0.464011,-2.336442 0.475445,-4.988399 2.727297,-7.698781 0.859724,-1.034784 1.152688,-1.573356 1.431147,-2.63096 0.177653,-0.674734 0.221141,-1.915991 0.09578,-2.733885 -0.05409,-0.35294 -0.07129,-0.633732 -0.03949,-0.64506 0.152643,-0.05439 1.287829,-0.801184 1.830328,-1.204105 0.723318,-0.537218 1.942118,-1.776593 2.394517,-2.434938 0.914298,-1.330519 1.50648,-2.995796 1.52989,-4.3022089 l 0.0063,-0.3511881 0.276021,0.8382809 c 0.606148,1.8408821 1.035569,4.0005471 1.14635,5.7652671 0.0561,0.893631 0.05136,1.249628 -0.02848,2.138226 l -0.02734,0.304274 0.17805,-0.03561 c 0.832568,-0.166514 3.253195,-1.257745 4.224063,-1.904229 1.356626,-0.903355 2.341333,-1.996868 2.724376,-3.025411 l 0.123194,-0.330798 -0.03647,0.40625 c -0.06977,0.777299 -0.286125,2.224652 -0.471799,3.15625 -1.121957,5.629288 -3.339777,9.195595 -6.308054,10.143499 -0.514519,0.164309 -0.925834,0.241369 -1.75,0.327862 -4.152272,0.435763 -7.676952,1.943048 -9.32013,3.985637 -0.209738,0.26072 -0.410838,0.538772 -0.446888,0.617894 -0.03605,0.07912 -0.08531,0.143858 -0.109461,0.143858 -0.02415,0 -0.09129,-0.238556 -0.149197,-0.530124 z"
       id="path4" />
    <path
       style="fill:#000000;stroke:#ffffff;stroke-width:0.5;stroke-dasharray:none"
       d="m 13.47048,50.46875 c 0.147645,-1.706711 0.65835,-4.16145 1.228787,-5.90625 1.163199,-3.557884 2.725823,-5.75202 4.805209,-6.747162 0.671474,-0.321351 1.264555,-0.465587 2.589274,-0.629706 3.122704,-0.386872 5.609106,-1.198466 7.455711,-2.43364 0.682949,-0.456817 1.503044,-1.215787 1.890742,-1.749817 0.351546,-0.484233 0.384838,-0.376541 0.157005,0.507871 -0.379647,1.473729 -1.10831,2.702026 -2.311906,3.897147 -1.236197,1.227491 -2.723506,2.150365 -5.019568,3.114636 -1.450247,0.609056 -2.528342,1.713059 -3.139567,3.215015 -0.200029,0.491527 -0.423453,1.334048 -0.479363,1.807651 L 20.608349,45.870239 20.0073,46.0702 c -3.184337,1.059382 -5.428293,2.629352 -6.381958,4.465098 L 13.432633,50.90625 Z M 49.625,50.432998 c -1.717397,-0.236657 -3.590611,-0.655722 -5.0625,-1.132554 -3.528155,-1.142979 -5.752853,-2.727274 -6.747162,-4.80492 -0.319199,-0.666978 -0.465085,-1.26299 -0.626129,-2.558024 -0.395762,-3.182515 -1.190052,-5.622429 -2.437392,-7.487223 -0.456659,-0.682712 -1.215681,-1.502832 -1.749642,-1.89048 -0.484638,-0.35184 -0.376567,-0.384845 0.511246,-0.156136 1.481421,0.381629 2.693676,1.102155 3.888331,2.311101 1.201707,1.216082 2.200461,2.807463 3.042449,4.847738 0.737608,1.787345 1.943958,2.892252 3.80831,3.488065 0.327944,0.104805 0.826898,0.226845 1.108787,0.2712 l 0.512526,0.08065 0.198168,0.595669 c 0.712239,2.140905 1.685189,3.911941 2.782652,5.065186 0.602634,0.633265 0.972268,0.922853 1.610487,1.261726 0.418902,0.222423 0.430102,0.233969 0.222369,0.229247 -0.120312,-0.0027 -0.598438,-0.05729 -1.0625,-0.121241 z M 31.75,32.53125 c 0,-0.01719 0.01406,-0.03125 0.03125,-0.03125 0.01719,0 0.03125,0.01406 0.03125,0.03125 0,0.01719 -0.01406,0.03125 -0.03125,0.03125 -0.01719,0 -0.03125,-0.01406 -0.03125,-0.03125 z m 0.75,-0.3125 c 0,-0.01719 0.01406,-0.03125 0.03125,-0.03125 0.01719,0 0.03125,0.01406 0.03125,0.03125 0,0.01719 -0.01406,0.03125 -0.03125,0.03125 C 32.51406,32.25 32.5,32.23594 32.5,32.21875 Z m -1.0625,-0.4375 c 0,-0.01719 0.01406,-0.03125 0.03125,-0.03125 0.01719,0 0.03125,0.01406 0.03125,0.03125 0,0.01719 -0.01406,0.03125 -0.03125,0.03125 -0.01719,0 -0.03125,-0.01406 -0.03125,-0.03125 z M 30.443857,31.58873 C 29.676171,31.385725 29.065231,31.127576 28.410454,30.729529 26.408339,29.512419 24.830272,27.479224 23.589936,24.518733 22.793848,22.618592 21.652783,21.558666 19.747489,20.949514 19.419545,20.844666 18.920591,20.72259 18.638702,20.678235 L 18.126176,20.597589 17.928008,20.00192 C 17.215769,17.861015 16.242819,16.089979 15.145356,14.936734 14.547767,14.30877 14.181434,14.020635 13.534869,13.670022 l -0.441119,-0.239205 0.4375,0.03876 c 2.851198,0.252572 6.362508,1.192102 8.541077,2.285359 2.080199,1.043893 3.388254,2.236551 4.112335,3.749545 0.321406,0.67159 0.46564,1.264766 0.629596,2.589274 0.388729,3.14033 1.190113,5.596453 2.431597,7.452492 0.443799,0.663487 1.155573,1.442459 1.673623,1.831629 0.198975,0.149474 0.388491,0.294351 0.421147,0.32195 0.113709,0.0961 -0.313296,0.0432 -0.896768,-0.111091 z M 32.1875,31.46875 c 0,-0.01719 0.01406,-0.03125 0.03125,-0.03125 0.01719,0 0.03125,0.01406 0.03125,0.03125 0,0.01719 -0.01406,0.03125 -0.03125,0.03125 -0.01719,0 -0.03125,-0.01406 -0.03125,-0.03125 z m 0.08651,-0.396115 c 0.07132,-0.537645 0.35073,-1.401158 0.660535,-2.041385 1.096337,-2.265634 3.302422,-4.083688 6.668061,-5.495207 1.410805,-0.59168 2.318918,-1.404926 2.989377,-2.67709 0.322705,-0.612318 0.618267,-1.511516 0.729786,-2.220251 l 0.08065,-0.512526 0.595669,-0.198168 c 2.140905,-0.712239 3.911941,-1.685189 5.065186,-2.782652 0.633265,-0.602634 0.922853,-0.972268 1.261726,-1.610487 0.269865,-0.508253 0.277471,-0.477846 0.142905,0.571305 -0.224863,1.753151 -0.676153,3.81731 -1.162333,5.316398 -1.150318,3.546895 -2.728898,5.766107 -4.81004,6.76209 -0.67159,0.321406 -1.264766,0.46564 -2.589274,0.629596 -3.144668,0.389266 -5.596043,1.189838 -7.459045,2.43598 -0.678889,0.454102 -1.582438,1.292728 -1.918453,1.780607 -0.130366,0.189285 -0.25004,0.344155 -0.265943,0.344155 -0.0159,0 -0.01086,-0.136064 0.0112,-0.302365 z"
       id="path3" />
  </g>
</svg>
