<?xml version="1.0" standalone="no"?>
<!DOCTYPE svg PUBLIC "-//W3C//DTD SVG 20010904//EN" "http://www.w3.org/TR/2001/REC-SVG-20010904/DTD/svg10.dtd">
<!-- Created using Karbon, part of Calligra: http://www.calligra.org/karbon -->
<svg xmlns="http://www.w3.org/2000/svg" xmlns:xlink="http://www.w3.org/1999/xlink" width="51.2pt" height="51.2pt">
<defs/>
<g id="layer0">
  <path id="path2" transform="" fill="#ffd42a" d="M32 0C49.6731 1.08217e-15 64 14.3269 64 32C64 49.6731 49.6731 64 32 64C14.3269 64 2.16433e-15 49.6731 0 32C-2.16433e-15 14.3269 14.3269 3.2465e-15 32 0Z"/>
  <path id="path4" transform="translate(18.7975, 16.0906)" fill="#800000" d="M15.5042 11.6731C34.0583 8.0918 34.771 0 34.771 0C34.771 0 33.3098 25.0778 19.7503 26.4046C2.5672 28.0859 0 36.1921 0 36.1921C0 36.1921 4.5952 13.7789 15.5042 11.6732Z"/>
  <path id="path6" transform="translate(17.656, 9.1375)" fill="#ff0000" d="M5.45039 17.5197C21.1718 10.8625 19.7319 0 19.7319 0C19.7319 0 28.4118 22.1583 15.3995 27.3241C0.863392 33.0949 1.51019 42.9521 1.51019 42.9521C1.51019 42.9521 -3.78311 21.4302 5.45029 17.5198Z"/>
  <path id="path8" transform="translate(12.4803, 12.7314)" fill="#ff6600" d="M1.36461 19.8163C10.1975 8.1686 8.21071 0 8.21071 0C8.21071 0 19.5197 14.1903 11.8267 23C3.22421 32.8183 6.97061 39.6489 6.97061 39.6489C6.97061 39.6489 -3.70169 26.5174 1.36451 19.837Z"/>
 </g>
</svg>
