<?xml version="1.0" encoding="UTF-8" standalone="no"?>
<svg
   version="1.1"
   viewBox="0 0 64 64"
   width="64"
   height="64"
   id="svg10"
   sodipodi:docname="org.flameshot.Flameshot.svg"
   inkscape:version="1.2.2 (b0a8486541, 2022-12-01)"
   xmlns:inkscape="http://www.inkscape.org/namespaces/inkscape"
   xmlns:sodipodi="http://sodipodi.sourceforge.net/DTD/sodipodi-0.dtd"
   xmlns="http://www.w3.org/2000/svg"
   xmlns:svg="http://www.w3.org/2000/svg">
  <defs
     id="defs14" />
  <sodipodi:namedview
     id="namedview12"
     pagecolor="#ffffff"
     bordercolor="#000000"
     borderopacity="0.25"
     inkscape:showpageshadow="2"
     inkscape:pageopacity="0.0"
     inkscape:pagecheckerboard="0"
     inkscape:deskcolor="#d1d1d1"
     showgrid="false"
     inkscape:zoom="3.2539063"
     inkscape:cx="-34.727491"
     inkscape:cy="63.154862"
     inkscape:window-width="1920"
     inkscape:window-height="1010"
     inkscape:window-x="0"
     inkscape:window-y="0"
     inkscape:window-maximized="1"
     inkscape:current-layer="svg10" />
  <path
     fill="#80a"
     d="M32 0A1 1 0 0 1 32 64 1 1 0 0 1 32 0Z"
     id="path2"
     style="fill:#ffd42a" />
  <path
     fill="#f06"
     d="M34.3017 27.7637c18.5541-3.5813 19.2668-11.6731 19.2668-11.6731 0 0-1.4612 25.0778-15.0207 26.4046-17.1831 1.6813-19.7503 9.7875-19.7503 9.7875 0 0 4.5952-22.4132 15.5042-24.5189z"
     id="path4"
     style="fill:#800000" />
  <path
     fill="#f60"
     d="M23.1064 26.6572C38.8278 20 37.3879 9.1375 37.3879 9.1375c0 0 8.6799 22.1583-4.3324 27.3241-14.5361 5.7708-13.8893 15.628-13.8893 15.628 0 0-5.2933-21.5219 3.9401-25.4323z"
     id="path6"
     style="fill:#ff0000" />
  <path
     fill="#fc0"
     d="M13.8449 32.5477C22.6778 20.9 20.691 12.7314 20.691 12.7314c0 0 11.309 14.1903 3.616 23-8.6025 9.8183-4.8561 16.6489-4.8561 16.6489 0 0-10.6723-13.1315-5.6061-19.8119z"
     id="path8"
     style="fill:#ff6600" />
</svg>
